<svg width="42" height="48" fill="none" xmlns="http://www.w3.org/2000/svg"><path d="M40.875 15H1.125A1.128 1.128 0 0 1 0 13.875V10.5C0 8.016 2.016 6 4.5 6H9V1.125C9 .506 9.506 0 10.125 0h3.75C14.494 0 15 .506 15 1.125V6h12V1.125C27 .506 27.506 0 28.125 0h3.75C32.494 0 33 .506 33 1.125V6h4.5c2.484 0 4.5 2.016 4.5 4.5v3.375c0 .619-.506 1.125-1.125 1.125Zm-39.75 3h39.75c.619 0 1.125.506 1.125 1.125V43.5c0 2.484-2.016 4.5-4.5 4.5h-33A4.501 4.501 0 0 1 0 43.5V19.125C0 18.506.506 18 1.125 18Zm24.122 15 4.51-4.51c.44-.44.44-1.152 0-1.593l-2.654-2.653a1.126 1.126 0 0 0-1.594 0L21 28.754l-4.51-4.51a1.126 1.126 0 0 0-1.593 0l-2.653 2.653c-.44.44-.44 1.153 0 1.594L16.754 33l-4.51 4.51c-.44.44-.44 1.153 0 1.593l2.653 2.653c.44.44 1.153.44 1.594 0L21 37.246l4.51 4.51c.44.44 1.152.44 1.593 0l2.653-2.653c.44-.44.44-1.153 0-1.594L25.246 33Z" fill="#DF6951"/></svg>