<svg width="33" height="43" fill="none" xmlns="http://www.w3.org/2000/svg"><path d="M18.813 11.422V0H2.015A2.01 2.01 0 0 0 0 2.016v38.968A2.01 2.01 0 0 0 2.016 43h28.218a2.01 2.01 0 0 0 2.016-2.016V13.437H20.828a2.021 2.021 0 0 1-2.015-2.015Zm5.755 15.073.95.95a1.344 1.344 0 0 1 0 1.9l-2.511 2.512 2.524 2.525a1.344 1.344 0 0 1 0 1.9l-.95.95a1.344 1.344 0 0 1-1.9 0l-2.525-2.526-2.524 2.525a1.344 1.344 0 0 1-1.9 0l-.95-.95a1.344 1.344 0 0 1 0-1.9l2.524-2.525-4.982-4.981H10.75v4.031c0 .743-.601 1.344-1.344 1.344H8.062a1.343 1.343 0 0 1-1.343-1.344V17.47c0-.743.601-1.344 1.343-1.344h6.72a5.375 5.375 0 0 1 5.374 5.375c0 2.034-1.144 3.784-2.81 4.696l2.81 2.81 2.511-2.51a1.344 1.344 0 0 1 1.9 0Zm-9.787-3.651H10.75v-2.688h4.031c.741 0 1.344.603 1.344 1.344 0 .74-.603 1.344-1.344 1.344ZM32.25 10.238v.512H21.5V0h.512c.538 0 1.05.21 1.428.588l8.222 8.23c.378.378.588.89.588 1.42Z" fill="#DF6951"/></svg>