<svg width="49" height="49" fill="none" xmlns="http://www.w3.org/2000/svg"><path d="M33.687 9.187a9.187 9.187 0 1 0-18.375 0 9.187 9.187 0 1 0 18.375 0ZM22.355 23.074C16.677 19.598 7.48 18.643 2.852 18.38 1.297 18.292 0 19.477 0 20.972v21.323c0 1.371 1.11 2.515 2.535 2.589 4.178.219 12.632 1.022 18.474 3.965.897.451 1.96-.164 1.96-1.136V24.17a1.274 1.274 0 0 0-.614-1.097Zm23.792-4.694c-4.627.262-13.825 1.218-19.502 4.694-.392.24-.613.666-.613 1.113V47.71c0 .975 1.066 1.591 1.965 1.139 5.842-2.94 14.29-3.743 18.468-3.962C47.89 44.812 49 43.668 49 42.297V20.972c-.001-1.495-1.298-2.68-2.853-2.592Z" fill="#DF6951"/></svg>